<svg width="28" height="28" viewBox="0 0 28 28" fill="none" xmlns="http://www.w3.org/2000/svg">
<g clip-path="url(#clip0_54_216)">
<path d="M23.7032 5.09809C21.9186 4.27925 20.0049 3.67594 18.0039 3.33037C17.9675 3.3237 17.9311 3.34038 17.9123 3.37368C17.6662 3.81145 17.3936 4.3825 17.2027 4.83138C15.0505 4.50916 12.9094 4.50916 10.8014 4.83138C10.6105 4.37255 10.3279 3.81145 10.0807 3.37368C10.0619 3.34147 10.0255 3.32479 9.98909 3.33037C7.98928 3.67479 6.07555 4.2781 4.28978 5.09809C4.27431 5.10476 4.26107 5.11586 4.25227 5.1303C0.62233 10.5534 -0.372107 15.8432 0.115705 21.0674C0.117893 21.0929 0.132276 21.1174 0.152127 21.133C2.54706 22.8918 4.86701 23.9595 7.14381 24.6672C7.18024 24.6783 7.21885 24.6651 7.24203 24.635C7.7806 23.8995 8.2607 23.124 8.67233 22.3085C8.69661 22.2607 8.67342 22.204 8.62377 22.1851C7.86224 21.8963 7.13714 21.544 6.4396 21.1441C6.38442 21.1119 6.37999 21.033 6.4308 20.9952C6.57758 20.8852 6.72442 20.7708 6.86458 20.6552C6.88996 20.6341 6.92528 20.6297 6.95509 20.643C11.5375 22.7351 16.4984 22.7351 21.0267 20.643C21.0565 20.6285 21.0919 20.633 21.1183 20.6541C21.2585 20.7696 21.4053 20.8852 21.5532 20.9951C21.604 21.0329 21.6006 21.1118 21.5455 21.1441C20.848 21.5518 20.1229 21.8962 19.3602 22.184C19.3106 22.2029 19.2885 22.2607 19.3128 22.3084C19.7333 23.1228 20.2134 23.8983 20.742 24.6339C20.7641 24.665 20.8038 24.6783 20.8402 24.6672C23.1281 23.9595 25.448 22.8917 27.843 21.1329C27.864 21.1174 27.8772 21.094 27.8794 21.0685C28.4632 15.0287 26.9015 9.78229 23.7396 5.13139C23.7319 5.11586 23.7187 5.10476 23.7032 5.09809ZM9.35674 17.8864C7.97714 17.8864 6.84035 16.6198 6.84035 15.0643C6.84035 13.5088 7.95505 12.2422 9.35674 12.2422C10.7694 12.2422 11.8952 13.5199 11.8731 15.0643C11.8731 16.6198 10.7583 17.8864 9.35674 17.8864ZM18.6606 17.8864C17.281 17.8864 16.1442 16.6198 16.1442 15.0643C16.1442 13.5088 17.2589 12.2422 18.6606 12.2422C20.0733 12.2422 21.199 13.5199 21.177 15.0643C21.177 16.6198 20.0733 17.8864 18.6606 17.8864Z" fill="white"/>
</g>
<defs>
<clipPath id="clip0_54_216">
<rect width="28" height="28" fill="white"/>
</clipPath>
</defs>
</svg>
