
<svg width="20" height="21" viewBox="0 0 20 21" fill="none" xmlns="http://www.w3.org/2000/svg">
<path fill-rule="evenodd" clip-rule="evenodd" d="M10.0613 0.561279H0.122699L0.245399 2.15637L0.122699 3.04594L0 4.24226L0.122699 5.5306V10.4999V20.4386H1.36503L2.69939 19.9478L5.09202 20.4386H10.0613H20L19.8773 10.6226L20 5.71465V2.76987L19.7546 0.806678H18.8957L17.5153 0.561279H15.0307H10.0613ZM4.7853 6.79024V3.26074H9.93867H12.5154H13.8037L14.4785 3.38344L15.3979 3.26074V7.50523L13.9264 8.8981L13.2209 9.71723L12.7608 10.0092L12.5154 10.5364L9.69327 13.8129L9.93867 14.2098H13.0666H14.4776H14.9071L15.0298 14.5491L15.7037 14.6718V16.0972V17.7393H9.93867H7.36198H6.07364L5.39879 17.6166L4.47949 17.7393V16.8959V16.0525V13.875L10.4295 7.06442V6.79024H7.85278H6.62484L5.8273 6.69632L4.7853 6.79024Z" fill="#EF4125"/>
</svg>
