<svg width="28" height="28" viewBox="0 0 28 28" fill="none" xmlns="http://www.w3.org/2000/svg">
<g clip-path="url(#clip0_54_222)">
<path d="M23.2342 15.1993C22.7815 14.6276 22.911 14.3733 23.2342 13.8623C23.24 13.8565 26.9768 8.69281 27.3618 6.94165L27.3642 6.94048C27.5555 6.30231 27.3642 5.83331 26.439 5.83331H23.3777C22.5983 5.83331 22.239 6.23581 22.0465 6.68615C22.0465 6.68615 20.4878 10.4171 18.2828 12.8356C17.5712 13.5345 17.2422 13.7585 16.8537 13.7585C16.6623 13.7585 16.3648 13.5345 16.3648 12.8963V6.94048C16.3648 6.17515 16.1467 5.83331 15.5015 5.83331H10.6878C10.199 5.83331 9.9085 6.19031 9.9085 6.52281C9.9085 7.24848 11.011 7.41531 11.1253 9.45698V13.8868C11.1253 14.8575 10.9492 15.036 10.5583 15.036C9.51767 15.036 6.99183 11.2898 5.495 7.00231C5.19283 6.17048 4.89767 5.83448 4.1125 5.83448H1.05C0.176167 5.83448 0 6.23698 0 6.68731C0 7.48298 1.04067 11.4391 4.83933 16.6658C7.371 20.2335 10.9363 22.1666 14.1797 22.1666C16.1292 22.1666 16.3672 21.7373 16.3672 20.9988C16.3672 17.5898 16.191 17.2678 17.1675 17.2678C17.6202 17.2678 18.3995 17.4918 20.2195 19.2126C22.2997 21.2531 22.6415 22.1666 23.8058 22.1666H26.8672C27.7398 22.1666 28.182 21.7373 27.9277 20.8903C27.3455 19.1088 23.4115 15.4443 23.2342 15.1993Z" fill="white"/>
</g>
<defs>
<clipPath id="clip0_54_222">
<rect width="28" height="28" fill="white"/>
</clipPath>
</defs>
</svg>
